<?xml version="1.0" encoding="UTF-8" standalone="no" ?>
<!DOCTYPE svg PUBLIC "-//W3C//DTD SVG 1.1//EN" "http://www.w3.org/Graphics/SVG/1.1/DTD/svg11.dtd">
<svg xmlns="http://www.w3.org/2000/svg" xmlns:xlink="http://www.w3.org/1999/xlink" version="1.1" width="350" height="350" viewBox="0 0 350 350" xml:space="preserve">
<desc>Created with Fabric.js 1.7.22</desc>
<defs>
</defs>
<g id="icon" style="stroke: none; stroke-width: 1; stroke-dasharray: none; stroke-linecap: butt; stroke-linejoin: miter; stroke-miterlimit: 10; fill: none; fill-rule: nonzero; opacity: 1;" transform="translate(-1.9444444444444287 -1.9444444444444287) scale(3.89 3.89)" >
	<rect x="0" y="21.86" rx="0" ry="0" width="90" height="46.28" style="stroke: none; stroke-width: 1; stroke-dasharray: none; stroke-linecap: butt; stroke-linejoin: miter; stroke-miterlimit: 10; fill: rgb(68,155,56); fill-rule: nonzero; opacity: 1;" transform=" matrix(1 0 0 1 0 0) "/>
	<path d="M 75.578 28.554 H 14.433 c 0 4.274 -3.465 7.739 -7.739 7.739 v 17.413 c 4.274 0 7.739 3.465 7.739 7.739 h 61.145 c -0.002 -0.077 -0.012 -0.153 -0.012 -0.231 c 0 -4.274 3.465 -7.739 7.739 -7.739 V 36.062 C 79.11 36.062 75.702 32.72 75.578 28.554 z" style="stroke: none; stroke-width: 1; stroke-dasharray: none; stroke-linecap: butt; stroke-linejoin: miter; stroke-miterlimit: 10; fill: rgb(98,199,81); fill-rule: nonzero; opacity: 1;" transform=" matrix(1 0 0 1 0 0) " stroke-linecap="round" />
	<circle cx="44.995999999999995" cy="44.995999999999995" r="13.776" style="stroke: none; stroke-width: 1; stroke-dasharray: none; stroke-linecap: butt; stroke-linejoin: miter; stroke-miterlimit: 10; fill: rgb(68,155,56); fill-rule: nonzero; opacity: 1;" transform="  matrix(1 0 0 1 0 0) "/>
	<circle cx="23.715" cy="44.995000000000005" r="2.755" style="stroke: none; stroke-width: 1; stroke-dasharray: none; stroke-linecap: butt; stroke-linejoin: miter; stroke-miterlimit: 10; fill: rgb(68,155,56); fill-rule: nonzero; opacity: 1;" transform="  matrix(1 0 0 1 0 0) "/>
	<circle cx="66.285" cy="44.995000000000005" r="2.755" style="stroke: none; stroke-width: 1; stroke-dasharray: none; stroke-linecap: butt; stroke-linejoin: miter; stroke-miterlimit: 10; fill: rgb(68,155,56); fill-rule: nonzero; opacity: 1;" transform="  matrix(1 0 0 1 0 0) "/>
	<path d="M 44.891 52.247 c -2.099 0 -3.954 -1.112 -4.725 -2.833 l 2.738 -1.227 c 0.279 0.624 1.096 1.06 1.987 1.06 s 1.708 -0.436 1.987 -1.06 c 0.089 -0.218 0.114 -0.411 0.059 -0.528 c -0.087 -0.182 -0.49 -0.663 -2.365 -1.222 c -1.561 -0.465 -3.45 -1.205 -4.213 -2.802 c -0.301 -0.628 -0.543 -1.66 0.007 -3.004 c 0.79 -1.766 2.645 -2.878 4.744 -2.878 c 2.099 0 3.953 1.112 4.726 2.833 l -2.738 1.228 c -0.279 -0.625 -1.097 -1.061 -1.987 -1.061 c -0.891 0 -1.708 0.436 -1.987 1.06 c -0.089 0.218 -0.115 0.411 -0.058 0.528 c 0.086 0.181 0.49 0.663 2.364 1.222 c 1.561 0.465 3.45 1.205 4.214 2.802 c 0.301 0.629 0.543 1.66 -0.008 3.005 C 48.845 51.135 46.99 52.247 44.891 52.247 z" style="stroke: none; stroke-width: 1; stroke-dasharray: none; stroke-linecap: butt; stroke-linejoin: miter; stroke-miterlimit: 10; fill: rgb(98,199,81); fill-rule: nonzero; opacity: 1;" transform=" matrix(1 0 0 1 0 0) " stroke-linecap="round" />
	<rect x="43.39" y="50.75" rx="0" ry="0" width="3" height="3.47" style="stroke: none; stroke-width: 1; stroke-dasharray: none; stroke-linecap: butt; stroke-linejoin: miter; stroke-miterlimit: 10; fill: rgb(98,199,81); fill-rule: nonzero; opacity: 1;" transform=" matrix(1 0 0 1 0 0) "/>
	<rect x="43.39" y="35.78" rx="0" ry="0" width="3" height="3.47" style="stroke: none; stroke-width: 1; stroke-dasharray: none; stroke-linecap: butt; stroke-linejoin: miter; stroke-miterlimit: 10; fill: rgb(98,199,81); fill-rule: nonzero; opacity: 1;" transform=" matrix(1 0 0 1 0 0) "/>
	<circle cx="8.628" cy="30.407999999999998" r="1.938" style="stroke: none; stroke-width: 1; stroke-dasharray: none; stroke-linecap: butt; stroke-linejoin: miter; stroke-miterlimit: 10; fill: rgb(98,199,81); fill-rule: nonzero; opacity: 1;" transform="  matrix(1 0 0 1 0 0) "/>
	<circle cx="8.628" cy="59.508" r="1.938" style="stroke: none; stroke-width: 1; stroke-dasharray: none; stroke-linecap: butt; stroke-linejoin: miter; stroke-miterlimit: 10; fill: rgb(98,199,81); fill-rule: nonzero; opacity: 1;" transform="  matrix(1 0 0 1 0 0) "/>
	<circle cx="81.36800000000001" cy="30.448" r="1.938" style="stroke: none; stroke-width: 1; stroke-dasharray: none; stroke-linecap: butt; stroke-linejoin: miter; stroke-miterlimit: 10; fill: rgb(98,199,81); fill-rule: nonzero; opacity: 1;" transform="  matrix(1 0 0 1 0 0) "/>
	<circle cx="81.36800000000001" cy="59.548" r="1.938" style="stroke: none; stroke-width: 1; stroke-dasharray: none; stroke-linecap: butt; stroke-linejoin: miter; stroke-miterlimit: 10; fill: rgb(98,199,81); fill-rule: nonzero; opacity: 1;" transform="  matrix(1 0 0 1 0 0) "/>
</g>
</svg>