<?xml version="1.0" encoding="UTF-8" standalone="no" ?>
<!DOCTYPE svg PUBLIC "-//W3C//DTD SVG 1.1//EN" "http://www.w3.org/Graphics/SVG/1.1/DTD/svg11.dtd">
<svg xmlns="http://www.w3.org/2000/svg" xmlns:xlink="http://www.w3.org/1999/xlink" version="1.1" width="350" height="350" viewBox="0 0 350 350" xml:space="preserve">
<desc>Created with Fabric.js 1.7.22</desc>
<defs>
</defs>
<g id="icon" style="stroke: none; stroke-width: 1; stroke-dasharray: none; stroke-linecap: butt; stroke-linejoin: miter; stroke-miterlimit: 10; fill: none; fill-rule: nonzero; opacity: 1;" transform="translate(-1.9444444444444287 -1.9444444444444287) scale(3.89 3.89)" >
	<path d="M 53.162 38.559 c 7.381 -6.396 16.36 -12.943 16.36 -32.838 H 20.478 c 0 19.894 8.979 26.441 16.36 32.838 c 4.079 3.535 4.079 9.346 0 12.881 c -7.381 6.396 -16.36 12.943 -16.36 32.838 h 49.044 c 0 -19.894 -8.979 -26.441 -16.36 -32.838 C 49.083 47.906 49.083 42.094 53.162 38.559 z" style="stroke: none; stroke-width: 1; stroke-dasharray: none; stroke-linecap: butt; stroke-linejoin: miter; stroke-miterlimit: 10; fill: rgb(228,234,248); fill-rule: nonzero; opacity: 1;" transform=" matrix(1 0 0 1 0 0) " stroke-linecap="round" />
	<path d="M 41.804 51.44 c 3.59 -3.535 3.59 -9.346 0 -12.881 c -6.496 -6.396 -14.399 -12.943 -14.399 -32.837 h -6.927 c 0 19.894 8.979 26.441 16.36 32.837 c 4.079 3.535 4.079 9.346 0 12.881 c -7.381 6.396 -16.36 12.943 -16.36 32.838 h 6.927 C 27.405 64.384 35.307 57.837 41.804 51.44 z" style="stroke: none; stroke-width: 1; stroke-dasharray: none; stroke-linecap: butt; stroke-linejoin: miter; stroke-miterlimit: 10; fill: rgb(204,210,219); fill-rule: nonzero; opacity: 1;" transform=" matrix(1 0 0 1 0 0) " stroke-linecap="round" />
	<path d="M 54.653 62.616 c -3.157 -3.515 -6.861 -5.452 -9.653 -10.173 c -2.792 4.721 -6.496 6.658 -9.653 10.173 c -3.251 3.743 -5.952 8.906 -5.952 18.352 H 45 h 15.605 C 60.605 71.522 57.904 66.359 54.653 62.616 z" style="stroke: none; stroke-width: 1; stroke-dasharray: none; stroke-linecap: butt; stroke-linejoin: miter; stroke-miterlimit: 10; fill: rgb(254,202,87); fill-rule: nonzero; opacity: 1;" transform=" matrix(1 0 0 1 0 0) " stroke-linecap="round" />
	<path d="M 73.986 90 H 16.014 c -0.811 0 -1.468 -0.657 -1.468 -1.468 v -3.835 c 0 -0.811 0.657 -1.468 1.468 -1.468 h 57.972 c 0.811 0 1.468 0.657 1.468 1.468 v 3.835 C 75.454 89.343 74.797 90 73.986 90 z" style="stroke: none; stroke-width: 1; stroke-dasharray: none; stroke-linecap: butt; stroke-linejoin: miter; stroke-miterlimit: 10; fill: rgb(48,63,73); fill-rule: nonzero; opacity: 1;" transform=" matrix(1 0 0 1 0 0) " stroke-linecap="round" />
	<path d="M 73.986 6.771 H 16.014 c -0.811 0 -1.468 -0.657 -1.468 -1.468 V 1.468 C 14.546 0.657 15.203 0 16.014 0 h 57.972 c 0.811 0 1.468 0.657 1.468 1.468 v 3.835 C 75.454 6.113 74.797 6.771 73.986 6.771 z" style="stroke: none; stroke-width: 1; stroke-dasharray: none; stroke-linecap: butt; stroke-linejoin: miter; stroke-miterlimit: 10; fill: rgb(48,63,73); fill-rule: nonzero; opacity: 1;" transform=" matrix(1 0 0 1 0 0) " stroke-linecap="round" />
	<path d="M 27.35 83.229 H 16.014 c -0.811 0 -1.468 0.657 -1.468 1.468 v 3.835 c 0 0.811 0.657 1.468 1.468 1.468 H 27.35 V 83.229 z" style="stroke: none; stroke-width: 1; stroke-dasharray: none; stroke-linecap: butt; stroke-linejoin: miter; stroke-miterlimit: 10; fill: rgb(41,52,61); fill-rule: nonzero; opacity: 1;" transform=" matrix(1 0 0 1 0 0) " stroke-linecap="round" />
	<path d="M 27.35 0 H 16.014 c -0.811 0 -1.468 0.657 -1.468 1.468 v 3.835 c 0 0.811 0.657 1.468 1.468 1.468 H 27.35 V 0 z" style="stroke: none; stroke-width: 1; stroke-dasharray: none; stroke-linecap: butt; stroke-linejoin: miter; stroke-miterlimit: 10; fill: rgb(41,52,61); fill-rule: nonzero; opacity: 1;" transform=" matrix(1 0 0 1 0 0) " stroke-linecap="round" />
	<path d="M 39.951 58.303 c -1.555 1.388 -3.139 2.681 -4.604 4.313 c -3.251 3.743 -5.952 8.906 -5.952 18.352 h 5.27 C 34.856 70.82 36.955 63.713 39.951 58.303 z" style="stroke: none; stroke-width: 1; stroke-dasharray: none; stroke-linecap: butt; stroke-linejoin: miter; stroke-miterlimit: 10; fill: rgb(236,175,54); fill-rule: nonzero; opacity: 1;" transform=" matrix(1 0 0 1 0 0) " stroke-linecap="round" />
	<path d="M 50.314 31.326 c -1.738 1.935 -3.776 3.001 -5.314 5.6 c -1.537 -2.599 -3.576 -3.665 -5.314 -5.6 c -1.79 -2.06 -3.276 -4.902 -3.276 -10.102 H 45 h 8.59 C 53.59 26.423 52.103 29.265 50.314 31.326 z" style="stroke: none; stroke-width: 1; stroke-dasharray: none; stroke-linecap: butt; stroke-linejoin: miter; stroke-miterlimit: 10; fill: rgb(254,202,87); fill-rule: nonzero; opacity: 1;" transform=" matrix(1 0 0 1 0 0) " stroke-linecap="round" />
	<path d="M 42.221 33.7 c -0.856 -0.764 -1.728 -1.476 -2.534 -2.374 c -1.79 -2.06 -3.276 -4.902 -3.276 -10.102 h 2.901 C 39.416 26.81 40.572 30.722 42.221 33.7 z" style="stroke: none; stroke-width: 1; stroke-dasharray: none; stroke-linecap: butt; stroke-linejoin: miter; stroke-miterlimit: 10; fill: rgb(236,175,54); fill-rule: nonzero; opacity: 1;" transform=" matrix(1 0 0 1 0 0) " stroke-linecap="round" />
</g>
</svg>